HIERARCHY
ROOT joint_Root
{
	OFFSET 0.0 0.0 0.0
	CHANNELS 6 Xposition Yposition Zposition Zrotation Xrotation Yrotation 
	JOINT Hips
	{
		OFFSET 4.5925 91.4895 -427.239
		CHANNELS 6 Xposition Yposition Zposition Zrotation Xrotation Yrotation 
		JOINT Spine
		{
			OFFSET 15.7357 0.0 0.0
			CHANNELS 6 Xposition Yposition Zposition Zrotation Xrotation Yrotation 
			JOINT Chest
			{
				OFFSET 8.98455 -0.406207 0.0
				CHANNELS 6 Xposition Yposition Zposition Zrotation Xrotation Yrotation 
				JOINT Neck
				{
					OFFSET 16.3773 0.0 0.0
					CHANNELS 6 Xposition Yposition Zposition Zrotation Xrotation Yrotation 
					JOINT Head
					{
						OFFSET 6.45672 0.0 0.0
						CHANNELS 6 Xposition Yposition Zposition Zrotation Xrotation Yrotation 
						End Site
						{
							OFFSET 0.0 0.0 0.0
						}
					}
				}
				JOINT Shoulder_L
				{
					OFFSET 12.9942 -0.242716 4.98039
					CHANNELS 6 Xposition Yposition Zposition Zrotation Xrotation Yrotation 
					JOINT UpperArm_L
					{
						OFFSET 5.34809 0.0 0.0
						CHANNELS 6 Xposition Yposition Zposition Zrotation Xrotation Yrotation 
						JOINT LowerArm_L
						{
							OFFSET 24.3286 1.87007e-05 0.0
							CHANNELS 6 Xposition Yposition Zposition Zrotation Xrotation Yrotation 
							JOINT Hand_L
							{
								OFFSET 22.2916 0.0 0.0
								CHANNELS 6 Xposition Yposition Zposition Zrotation Xrotation Yrotation 
								End Site
								{
									OFFSET 0.0 0.0 0.0
								}
							}
						}
					}
				}
				JOINT Shoulder_R
				{
					OFFSET 12.9945 -0.242716 -4.98039
					CHANNELS 6 Xposition Yposition Zposition Zrotation Xrotation Yrotation 
					JOINT UpperArm_R
					{
						OFFSET -5.34813 0.0 0.0
						CHANNELS 6 Xposition Yposition Zposition Zrotation Xrotation Yrotation 
						JOINT LowerArm_R
						{
							OFFSET -24.3289 0.000322201 0.0
							CHANNELS 6 Xposition Yposition Zposition Zrotation Xrotation Yrotation 
							JOINT Hand_R
							{
								OFFSET -22.2915 -0.000108084 0.0
								CHANNELS 6 Xposition Yposition Zposition Zrotation Xrotation Yrotation 
								End Site
								{
									OFFSET 0.0 0.0 0.0
								}
							}
						}
					}
				}
			}
		}
		JOINT UpperLeg_L
		{
			OFFSET -2.19248 -6.46944 0.0
			CHANNELS 6 Xposition Yposition Zposition Zrotation Xrotation Yrotation 
			JOINT LowerLeg_L
			{
				OFFSET 39.0811 0.0 -1.23785e-05
				CHANNELS 6 Xposition Yposition Zposition Zrotation Xrotation Yrotation 
				JOINT Foot_L
				{
					OFFSET 40.9854 0.0 -1.26872e-05
					CHANNELS 6 Xposition Yposition Zposition Zrotation Xrotation Yrotation 
					JOINT Toes_L
					{
						OFFSET 11.7543 0.0 0.0
						CHANNELS 6 Xposition Yposition Zposition Zrotation Xrotation Yrotation 
						End Site
						{
							OFFSET 0.0 0.0 0.0
						}
					}
				}
			}
		}
		JOINT UpperLeg_R
		{
			OFFSET -2.19251 6.46944 0.0
			CHANNELS 6 Xposition Yposition Zposition Zrotation Xrotation Yrotation 
			JOINT LowerLeg_R
			{
				OFFSET -39.0811 -0.00228153 -0.0401928
				CHANNELS 6 Xposition Yposition Zposition Zrotation Xrotation Yrotation 
				JOINT Foot_R
				{
					OFFSET -40.9854 0.0 0.0
					CHANNELS 6 Xposition Yposition Zposition Zrotation Xrotation Yrotation 
					JOINT Toes_R
					{
						OFFSET -11.7543 0.0 0.0
						CHANNELS 6 Xposition Yposition Zposition Zrotation Xrotation Yrotation 
						End Site
						{
							OFFSET 0.0 0.0 0.0
						}
					}
				}
			}
		}
	}
}
MOTION
Frames:	6
Frame Time:	0.0333333
0.000000 0.000000 0.000000 0.000000 0.000000 -0.000000 2.213960 90.668200 0.286075 89.105800 -6.909930 12.559600 15.735700 0.000005 -0.000001 89.526400 80.121200 -92.403900 8.984550 -0.406207 -0.000000 11.990700 -0.267954 -5.725480 16.377300 -0.000001 -0.000001 28.535200 1.531920 1.066710 6.456720 -0.000001 -0.000000 12.164100 1.823700 -17.051400 12.994200 -0.242716 4.980390 -91.177000 3.889150 -73.148200 5.348090 -0.000007 -0.000001 -61.151200 34.230800 -17.123600 24.328600 0.000019 0.000005 7.596340 20.914500 -20.485300 22.291600 -0.000001 0.000005 7.474930 5.243520 1.603440 12.994500 -0.242716 -4.980390 91.953400 -5.963240 -71.824800 -5.348130 -0.000001 -0.000004 -69.606600 -44.749300 -83.858800 -24.328900 0.000322 -0.000009 6.371170 1.888720 -73.559300 -22.291500 -0.000108 -0.000004 18.326400 5.338110 -1.023410 -2.192480 -6.469440 -0.000000 -174.431000 -16.497800 3.245300 39.081100 -0.000007 -0.000012 -0.126271 0.207495 31.322800 40.985400 -0.000006 -0.000013 2.004280 4.791920 -71.669700 11.754300 -0.000000 0.000003 -0.000212 -0.001941 -16.650700 -2.192510 6.469440 -0.000001 171.154000 20.239400 -176.853000 -39.081100 -0.002282 -0.040193 -0.174110 0.301726 30.455100 -40.985400 0.000008 0.000006 2.833910 17.061900 -70.073800 -11.754300 -0.000006 -0.000006 -0.002710 -0.037279 -18.089100
0.000000 0.000000 0.000000 0.000000 0.000000 -0.000000 2.214660 90.665800 0.322988 89.091700 -6.873020 12.519600 15.735700 0.000005 -0.000001 89.544500 80.150000 -92.438000 8.984550 -0.406207 -0.000000 11.933400 -0.260442 -5.758050 16.377300 -0.000001 -0.000001 28.826500 1.433820 1.068650 6.456720 -0.000001 -0.000000 12.189000 1.726630 -17.021900 12.994200 -0.242716 4.980390 -91.142200 3.796080 -73.240600 5.348090 -0.000007 -0.000001 -61.413700 34.220100 -16.475000 24.328600 0.000019 0.000005 7.626480 21.018700 -20.471400 22.291600 -0.000001 0.000005 7.447120 5.242430 1.631710 12.994500 -0.242716 -4.980390 91.965300 -5.979320 -71.767200 -5.348130 -0.000001 -0.000004 -69.471000 -44.532000 -83.708500 -24.328900 0.000322 -0.000009 6.335440 1.886520 -73.489100 -22.291500 -0.000108 -0.000004 18.259600 5.337500 -1.005520 -2.192480 -6.469440 -0.000000 -174.443000 -16.436600 3.230900 39.081100 -0.000007 -0.000012 -0.128007 0.210347 31.322900 40.985400 -0.000006 -0.000013 2.002650 4.779700 -71.700600 11.754300 -0.000000 0.000003 -0.000219 -0.002001 -16.652800 -2.192510 6.469440 -0.000001 171.175000 20.247600 -176.858000 -39.081100 -0.002282 -0.040193 -0.170201 0.295112 30.452300 -40.985400 0.000008 0.000006 2.868360 17.018100 -70.114500 -11.754300 -0.000006 -0.000006 -0.002679 -0.036915 -18.074300
0.000000 0.000000 0.000000 0.000000 0.000000 -0.000000 2.212830 90.664000 0.368620 89.086500 -6.820320 12.497100 15.735700 0.000005 -0.000001 89.646000 80.223100 -92.537800 8.984550 -0.406207 -0.000000 11.788300 -0.221289 -5.758930 16.377300 -0.000001 -0.000001 29.114800 1.334380 1.152120 6.456720 -0.000001 -0.000000 12.321500 1.574820 -17.162500 12.994200 -0.242716 4.980390 -91.093200 3.688710 -73.479900 5.348090 -0.000007 -0.000001 -61.835100 33.906900 -15.658100 24.328600 0.000019 0.000005 7.678660 21.166500 -20.475300 22.291600 -0.000001 0.000005 7.273520 5.238630 1.731240 12.994500 -0.242716 -4.980390 91.992300 -6.041950 -71.711400 -5.348130 -0.000001 -0.000004 -69.178000 -44.272800 -83.367200 -24.328900 0.000322 -0.000009 6.316820 1.879850 -73.498100 -22.291500 -0.000108 -0.000004 18.129500 5.337650 -1.010220 -2.192480 -6.469440 -0.000000 -174.462000 -16.368600 3.234320 39.081100 -0.000007 -0.000012 -0.126610 0.208113 31.315400 40.985400 -0.000006 -0.000013 1.993310 4.750830 -71.724700 11.754300 -0.000000 0.000003 -0.000215 -0.001971 -16.651800 -2.192510 6.469440 -0.000001 171.182000 20.268600 -176.834000 -39.081100 -0.002282 -0.040193 -0.166304 0.288436 30.456400 -40.985400 0.000008 0.000006 2.953940 16.930700 -70.186800 -11.754300 -0.000006 -0.000006 -0.002885 -0.039292 -18.171000
0.000000 0.000000 0.000000 0.000000 0.000000 -0.000000 2.221550 90.661000 0.417961 89.079200 -6.770690 12.428600 15.735700 0.000005 -0.000001 89.748800 80.362200 -92.625100 8.984550 -0.406207 -0.000000 11.511500 -0.177826 -5.732420 16.377300 -0.000001 -0.000001 29.387400 1.216910 1.237610 6.456720 -0.000001 -0.000000 12.533000 1.429810 -17.327000 12.994200 -0.242716 4.980390 -91.033200 3.545340 -73.741500 5.348090 -0.000007 -0.000001 -62.210600 33.744200 -14.928700 24.328600 0.000019 0.000005 7.626730 21.330400 -20.209700 22.291600 -0.000001 0.000005 7.334870 5.239220 1.715990 12.994500 -0.242716 -4.980390 92.024300 -6.164930 -71.782200 -5.348130 -0.000001 -0.000004 -68.711100 -44.039700 -82.790000 -24.328900 0.000322 -0.000009 6.342430 1.872520 -73.622300 -22.291500 -0.000108 -0.000004 18.108500 5.339050 -1.051310 -2.192480 -6.469440 -0.000000 -174.478000 -16.346200 3.194640 39.081100 -0.000007 -0.000012 -0.128230 0.210783 31.314500 40.985400 -0.000006 -0.000013 2.001900 4.771880 -71.757700 11.754300 -0.000000 0.000003 -0.000216 -0.001974 -16.651800 -2.192510 6.469440 -0.000001 171.182000 20.302600 -176.854000 -39.081100 -0.002282 -0.040193 -0.165061 0.286430 30.447000 -40.985400 0.000008 0.000006 2.963260 16.928300 -70.224400 -11.754300 -0.000006 -0.000006 -0.002739 -0.037613 -18.102700
0.000000 0.000000 0.000000 0.000000 0.000000 -0.000000 2.218920 90.660700 0.476443 89.062300 -6.708340 12.378500 15.735700 0.000005 -0.000001 89.880700 80.521800 -92.723600 8.984550 -0.406207 -0.000000 11.193600 -0.124200 -5.670950 16.377300 -0.000001 -0.000001 29.628100 1.082650 1.370240 6.456720 -0.000001 -0.000000 12.731300 1.224300 -17.499300 12.994200 -0.242716 4.980390 -90.977800 3.417830 -74.024600 5.348090 -0.000007 -0.000001 -62.563700 33.469800 -14.348400 24.328600 0.000019 0.000005 7.525780 21.577400 -19.759800 22.291600 -0.000001 0.000005 7.365280 5.239130 1.718220 12.994500 -0.242716 -4.980390 92.057300 -6.296030 -71.863000 -5.348130 -0.000001 -0.000004 -68.266100 -43.740400 -82.240900 -24.328900 0.000322 -0.000009 6.344110 1.859670 -73.732800 -22.291500 -0.000108 -0.000004 18.266900 5.340390 -1.090750 -2.192480 -6.469440 -0.000000 -174.461000 -16.359100 3.183850 39.081100 -0.000007 -0.000012 -0.127699 0.209993 31.304600 40.985400 -0.000006 -0.000013 2.019680 4.842760 -71.787300 11.754300 -0.000000 0.000003 -0.000214 -0.001957 -16.651200 -2.192510 6.469440 -0.000001 171.198000 20.363000 -176.836000 -39.081100 -0.002282 -0.040193 -0.160619 0.279079 30.428500 -40.985400 0.000008 0.000006 3.028470 16.888600 -70.283400 -11.754300 -0.000006 -0.000006 -0.002703 -0.037197 -18.085800
0.000000 0.000000 0.000000 0.000000 0.000000 -0.000000 2.231130 90.660800 0.539190 89.062200 -6.678730 12.270500 15.735700 0.000005 -0.000001 90.131200 80.723000 -92.934700 8.984550 -0.406207 -0.000000 10.793300 -0.031901 -5.600920 16.377300 -0.000001 -0.000001 29.805800 0.956367 1.545850 6.456720 -0.000001 -0.000000 12.899900 1.027680 -17.676200 12.994200 -0.242716 4.980390 -90.922200 3.270290 -74.242800 5.348090 -0.000007 -0.000001 -62.909900 33.143200 -13.924400 24.328600 0.000019 0.000005 7.488770 22.044900 -19.301800 22.291600 -0.000001 0.000005 7.383920 5.233780 1.857650 12.994500 -0.242716 -4.980390 92.084500 -6.402240 -71.922900 -5.348130 -0.000001 -0.000004 -67.893000 -43.437100 -81.796000 -24.328900 0.000322 -0.000009 6.335340 1.846170 -73.823300 -22.291500 -0.000108 -0.000004 18.235700 5.338190 -1.025750 -2.192480 -6.469440 -0.000000 -174.498000 -16.350100 3.131560 39.081100 -0.000007 -0.000012 -0.130424 0.214731 31.274100 40.985400 -0.000006 -0.000013 2.016870 4.819470 -71.818000 11.754300 -0.000000 0.000003 -0.000216 -0.001973 -16.651800 -2.192510 6.469440 -0.000001 171.223000 20.342300 -176.896000 -39.081100 -0.002282 -0.040193 -0.158723 0.275996 30.415400 -40.985400 0.000008 0.000006 3.099530 16.830300 -70.349200 -11.754300 -0.000006 -0.000006 -0.002750 -0.037745 -18.108100
